<?xml version="1.0" encoding="UTF-8" standalone="no"?>
<!-- Created with Inkscape (http://www.inkscape.org/) -->

<svg
   width="188.62962mm"
   height="59.127533mm"
   viewBox="0 0 188.62962 59.127533"
   version="1.1"
   id="svg5"
   xml:space="preserve"
   xmlns:inkscape="http://www.inkscape.org/namespaces/inkscape"
   xmlns:sodipodi="http://sodipodi.sourceforge.net/DTD/sodipodi-0.dtd"
   xmlns="http://www.w3.org/2000/svg"
   xmlns:svg="http://www.w3.org/2000/svg"><sodipodi:namedview
     id="namedview7"
     pagecolor="#ffffff"
     bordercolor="#000000"
     borderopacity="0.25"
     inkscape:showpageshadow="2"
     inkscape:pageopacity="0.0"
     inkscape:pagecheckerboard="0"
     inkscape:deskcolor="#d1d1d1"
     inkscape:document-units="mm"
     showgrid="false" /><defs
     id="defs2"><rect
       x="44.684135"
       y="339.87024"
       width="537.56372"
       height="264.04263"
       id="rect236" /></defs><g
     inkscape:label="Capa 1"
     inkscape:groupmode="layer"
     id="layer1"
     transform="translate(-10.119099,-113.77758)"><text
       xml:space="preserve"
       transform="matrix(6.6018362,0,0,6.6018362,-219.67613,-2143.9687)"
       id="text234"
       style="font-style:normal;font-variant:normal;font-weight:normal;font-stretch:normal;font-family:Macadamia;-inkscape-font-specification:Macadamia;white-space:pre;shape-inside:url(#rect236);fill:none;fill-opacity:1;stroke:#000000;stroke-width:0.375502;stroke-dasharray:none;stroke-opacity:1"
       inkscape:highlight-color="#ee3bb6"><tspan
         x="44.683594"
         y="350.28538"
         id="tspan1037">DENO</tspan></text><g
       inkscape:label="Capa 1"
       id="layer1-2"
       transform="matrix(0.08003467,0,0,0.08003467,61.637601,117.05968)"><ellipse
         style="fill:#000000;fill-opacity:0;stroke:#000000;stroke-width:34.1938;stroke-dasharray:none;stroke-opacity:1"
         id="path592"
         cx="-272.29984"
         cy="328.2919"
         rx="354.30557"
         ry="352.20337" /><path
         style="fill:#000000;fill-opacity:0;stroke:#000000;stroke-width:27.484;stroke-dasharray:none;stroke-opacity:1"
         d="m -489.79634,609.07584 c -20.95106,-18.60949 10.41876,-73.14253 34.44333,-86.73784 59.23099,-34.35606 109.00074,-29.0483 168.6911,-28.99913 47.21281,-1.97531 94.91048,9.15196 133.53438,-17.50603 13.13048,-9.07454 18.62536,-19.79655 20.76297,-31.34801 1.63434,-60.35566 -57.54936,-127.101 -88.34439,-163.66103 -9.35876,-11.15086 -19.53525,-15.24211 -31.75513,-16.6918 -19.52874,-2.31676 -37.15985,2.11785 -54.55368,7.3281 -17.57629,5.2649 -58.21148,16.81162 -87.53015,24.42702 -19.33884,2.20275 -73.29066,25.63958 -83.45899,11.39928 -11.76335,-16.68864 -22.06271,-32.3651 -13.02775,-51.29674 4.80277,-9.58573 7.59952,-14.11339 11.39928,-21.17009 8.61528,-15.99981 3.08022,-38.7803 11.80639,-53.73944 7.71276,-16.34788 14.01691,-23.44386 28.09108,-32.97648 12.12308,-8.21495 23.94474,-8.99941 38.269,-21.5772 20.85837,-18.31523 16.984,-36.958017 26.86972,-50.482507 10.53091,-14.40716 26.30101,-20.5221 49.66827,-20.76297 18.93286,-0.19516 30.95444,0.26763 41.11882,8.95658 14.65166,12.52487 32.13141,16.22121 51.70386,18.32026 17.86511,1.91595 29.43719,27.692577 45.62604,35.838287 46.81943,23.55804 99.604891,35.41719 102.017741,55.30302 4.04498,33.33738 -5.58791,66.56773 13.98167,96.94676 19.65281,30.50823 53.00045,19.53693 81.64494,45.65 14.82366,37.31602 -8.2502604,71.27209 -2.4497204,96.16641 7.4187004,27.23713 28.0240204,54.03767 29.3124204,82.23764 -38.88499037,78.93729 -121.86492,140.88183 -182.195811,163.11422 -117.17107,39.42437 -250.9122,30.63097 -345.62539,-48.73831 z"
         id="path6574"
         sodipodi:nodetypes="ccccccsscccsccssssssssccccc" /><path
         style="fill:#000000;fill-opacity:0;stroke:#000000;stroke-width:21.284;stroke-dasharray:none;stroke-opacity:1"
         d="m -394.75147,194.71855 84.68033,-55.16435 c 0.99695,25.49575 -14.94435,53.17439 -25.85192,61.88178 -16.27501,11.9323 -36.04029,9.03096 -58.82841,-6.71743 z"
         id="path8082"
         sodipodi:nodetypes="cccc" /><path
         style="opacity:1;fill:#000000;fill-opacity:1;stroke:#000000;stroke-width:21.284;stroke-dasharray:none;stroke-opacity:1"
         d="M 39.845931,489.2677 C -25.927669,360.99704 -67.259819,248.57575 -193.025,112.27735 l 11.39928,10.58505"
         id="path14215"
         sodipodi:nodetypes="ccc" /><path
         style="opacity:1;fill:#000000;fill-opacity:1;stroke:#000000;stroke-width:21.284;stroke-dasharray:none;stroke-opacity:1"
         d="m 1.9840506,404.99448 c 22.0662804,38.51981 25.1824504,114.03331 -8.95657,154.70447 L 76.486461,399.29484 c -12.08353,42.74188 -48.32339,42.10245 -74.5024104,5.69964 z"
         id="path14294"
         sodipodi:nodetypes="cccc" /><path
         style="opacity:1;fill:#000000;fill-opacity:1;stroke:#000000;stroke-width:21.284;stroke-dasharray:none;stroke-opacity:1"
         d="m -280.64823,261.69501 76.28693,-18.13613 c -17.97513,17.81225 -7.30849,11.00482 -25.90876,26.77239 z"
         id="path14345"
         sodipodi:nodetypes="cccc" /><path
         style="opacity:1;fill:#000000;fill-opacity:1;stroke:#000000;stroke-width:21.284;stroke-dasharray:none;stroke-opacity:1"
         d="m -541.44868,547.52015 c 20.25783,19.61923 44.52715,19.63144 57.84845,-0.39688 l -15.54527,39.87071 z"
         id="path14372"
         sodipodi:nodetypes="cccc" /><path
         style="opacity:1;fill:#000000;fill-opacity:1;stroke:#000000;stroke-width:21.284;stroke-dasharray:none;stroke-opacity:1"
         d="m -469.45744,535.88261 c -24.13659,28.84049 -11.04666,72.88431 16.28468,88.34438 l -58.01418,-38.67611 z"
         id="path14374"
         sodipodi:nodetypes="cccc" /></g></g></svg>
